<svg width="45" height="62" viewBox="0 0 45 62" fill="none" xmlns="http://www.w3.org/2000/svg">
<path fill-rule="evenodd" clip-rule="evenodd" d="M4.98486 0.00758317H28.7544C28.8046 0 28.8476 0 28.8907 0C29.3712 0 29.7944 0.227495 30.0813 0.591487L44.4549 15.8033C44.7848 16.1067 44.9928 16.5465 44.9928 17.047C44.9928 17.1 44.9928 17.1455 44.9857 17.191L44.9785 56.7297C44.9785 58.1781 44.419 59.4976 43.5153 60.453C42.6116 61.4085 41.3707 62 40.0008 62H4.98486V61.9924C3.61492 61.9924 2.36691 61.4009 1.46318 60.4455C0.566624 59.4976 0.00717246 58.1781 0.00717246 56.7297H0V5.2703C0 3.82192 0.559452 2.50245 1.46318 1.55455C2.35974 0.59907 3.60775 0.00758317 4.98486 0.00758317ZM9.79041 40.479H24.5442C25.3977 40.479 26.0934 39.7434 26.0934 38.841C26.0934 37.9386 25.4048 37.2106 24.5442 37.2106H9.79041C8.93688 37.2106 8.24116 37.9386 8.24116 38.841C8.24833 39.7434 8.93688 40.479 9.79041 40.479ZM9.79041 32.6304H33.7106C34.5641 32.6304 35.2598 31.9024 35.2598 31C35.2598 30.0976 34.5641 29.362 33.7106 29.362H9.79041C8.93688 29.362 8.24116 30.0976 8.24116 31C8.24116 31.9024 8.93688 32.6304 9.79041 32.6304ZM9.79041 24.7894H33.7106C34.5641 24.7894 35.2598 24.0614 35.2598 23.159C35.2598 22.2566 34.5641 21.521 33.7106 21.521H9.79041C8.93688 21.521 8.24116 22.249 8.24116 23.159C8.24833 24.0614 8.93688 24.7894 9.79041 24.7894ZM33.6317 46.2877C32.9431 46.2877 32.3191 46.5834 31.8672 47.0612C31.4154 47.5389 31.1356 48.1986 31.1356 48.9266C31.1356 49.6622 31.4082 50.3219 31.8601 50.7921L31.8672 50.7997C32.3191 51.2698 32.9431 51.5656 33.6317 51.5656C34.3202 51.5656 34.9442 51.2698 35.3961 50.7921C35.8479 50.3143 36.1277 49.6546 36.1277 48.9266C36.1277 48.1986 35.8479 47.5313 35.3961 47.0536C34.9514 46.5834 34.3274 46.2877 33.6317 46.2877ZM29.6796 44.7483C28.6683 45.8175 28.0371 47.2962 28.0371 48.9266C28.0371 50.5494 28.6611 52.0281 29.6796 53.0974L29.6868 53.1049C30.7053 54.1742 32.0968 54.8339 33.6317 54.8339C35.1737 54.8339 36.5724 54.1742 37.5837 53.1049C38.595 52.0357 39.2262 50.557 39.2262 48.9266C39.2262 47.2962 38.6022 45.8251 37.5837 44.7559V44.7483C36.5652 43.6791 35.1737 43.0193 33.6317 43.0193C32.0896 43.0193 30.691 43.6791 29.6796 44.7483ZM41.9087 18.6773H32.3334C30.9707 18.6773 29.7227 18.0859 28.8189 17.1304L28.8046 17.1228C27.9009 16.1673 27.3486 14.8478 27.3486 13.407V3.26835H4.98486V3.27593V3.26835C4.46844 3.26835 3.99506 3.48826 3.65078 3.85225C3.3065 4.21624 3.09133 4.71673 3.09133 5.2703V56.7297H3.08416C3.08416 57.2757 3.29933 57.7838 3.64361 58.1478C3.98789 58.5117 4.46127 58.7317 4.97769 58.7317H40.0008C40.5244 58.7317 40.9978 58.5042 41.3421 58.1478C41.6863 57.7838 41.8943 57.2833 41.8943 56.7297L41.9087 18.6773ZM30.4399 5.58121V13.4146C30.4399 13.9682 30.6479 14.4687 30.9922 14.8251L30.9994 14.8327C31.3365 15.1891 31.8099 15.4166 32.3334 15.4166H39.7282L30.4399 5.58121Z" fill="#324B8C"/>
</svg>
