<svg width="64" height="60" viewBox="0 0 64 60" fill="none" xmlns="http://www.w3.org/2000/svg">
<path fill-rule="evenodd" clip-rule="evenodd" d="M41.0544 8.02755C41.7388 7.45204 42.7846 7.51845 43.3844 8.17511C43.9841 8.83178 43.9149 9.83522 43.2306 10.4107L30.043 21.5002C29.4048 22.0389 28.4667 22.0167 27.8515 21.4855L22.1074 16.6527L11.5728 25.5066C10.8884 26.0821 9.8426 26.0157 9.24282 25.3591C8.64304 24.7024 8.71224 23.699 9.39661 23.1235L21.0001 13.3694C21.623 12.8382 22.5611 12.8234 23.1993 13.3546L28.9588 18.1948L41.0544 8.02755ZM39.3397 34.1392C39.3781 34.213 39.4089 34.2794 39.4319 34.3605C39.8318 35.2238 40.3393 36.0428 40.9314 36.7585C41.1698 37.0462 41.4158 37.3192 41.6773 37.5701C41.7465 37.6291 41.8157 37.6881 41.8695 37.7546C42.354 38.212 42.8692 38.5883 43.4074 38.8908C44.1764 39.3187 44.9761 39.5696 45.7604 39.5696C46.5448 39.5696 47.3445 39.3187 48.1134 38.8908C48.644 38.5957 49.1592 38.212 49.6513 37.7546C49.7052 37.6881 49.7744 37.6291 49.8436 37.5701C50.0973 37.3192 50.3434 37.0462 50.5818 36.7585C51.32 35.8583 51.9351 34.8106 52.3504 33.7039C52.7425 32.6709 52.9655 31.5863 52.9655 30.5239V30.3837C52.9732 30.214 52.9809 30.0738 52.9732 29.9115C52.9732 29.6237 52.9886 28.8711 53.004 28.1259C53.0885 23.7285 53.1501 20.364 45.7604 20.364C38.3708 20.364 38.4323 23.7285 38.5169 28.1333C38.5323 28.8785 38.5476 29.6311 38.5476 29.9188C38.5476 30.1254 38.5476 30.0664 38.5476 30.118L38.5553 30.2656C38.563 30.3689 38.5707 30.4722 38.5553 30.5829C38.563 31.6306 38.786 32.7004 39.1705 33.7113C39.2243 33.8514 39.2781 33.9916 39.3397 34.1392ZM28.1129 37.6808V36.456H36.8252C37.2635 37.2676 37.771 38.0275 38.34 38.7137C38.5246 38.9351 38.7168 39.1564 38.909 39.3704L38.886 39.6213V39.6581C38.8321 40.4255 38.7553 41.3773 38.6784 41.9749L37.8863 42.4471C34.9874 43.0448 32.4268 44.0113 30.6043 45.332C28.6743 46.7339 27.5208 48.5121 27.5208 50.696H27.5285V58.2661V58.3399V58.4137C27.5285 59.2917 28.2667 60 29.1818 60L62.3467 59.941C63.2618 59.941 64 59.2327 64 58.3546V58.3104V58.2587V50.696H64.0077C64.0077 48.5194 62.8543 46.7339 60.9242 45.332C59.1018 44.0113 56.5411 43.0448 53.6422 42.4471L52.8425 41.9749C52.7656 41.3773 52.6887 40.4255 52.6349 39.6581V39.6213L52.6118 39.3704C52.8117 39.1564 52.9963 38.9425 53.1808 38.7137C54.1266 37.5627 54.911 36.2125 55.4569 34.7737C55.9875 33.4014 56.2874 31.9479 56.2874 30.5165V30.4575L56.2797 30.3246L56.2874 29.9115C56.2874 29.0039 56.2951 28.576 56.3028 28.1776C56.4027 23.153 56.4719 19.0876 50.874 17.7004V3.18003H51.2507C52.1658 3.18003 52.9117 2.46434 52.9117 1.58633C52.9117 0.708313 52.1658 0 51.2507 0H49.2207H3.69098H1.66094C0.745885 0 0 0.715691 0 1.5937C0 2.47172 0.745885 3.18741 1.66094 3.18741H2.03773V34.8696C2.03773 35.7477 2.77592 36.4634 3.69867 36.4634H24.8064V37.6881C24.8064 38.5662 25.5446 39.2745 26.4597 39.2745C27.3671 39.2671 28.1129 38.5588 28.1129 37.6808ZM47.5598 3.18003H5.34423V33.2759H26.452H35.5795C35.3488 32.361 35.2334 31.4314 35.2334 30.5165L35.2411 30.2878L35.2334 29.9115C35.2334 29.0039 35.2258 28.576 35.2181 28.1776C35.1027 21.9429 35.0105 17.184 45.7604 17.184C46.3987 17.184 46.9984 17.1987 47.5598 17.2356V3.18003ZM30.8273 56.8274V50.696H30.835C30.835 49.6188 31.4963 48.6744 32.5959 47.8701C34.0877 46.7929 36.2946 45.9961 38.8322 45.487C38.9936 45.4575 39.1474 45.4058 39.2935 45.3246C39.9087 46.1067 40.7468 46.7118 41.685 47.1471C42.4462 47.5012 43.2767 47.7447 44.1072 47.8849L44.161 56.8052L30.8273 56.8274ZM47.4675 56.7978L47.4137 47.8701C48.2134 47.7226 48.9823 47.4643 49.6667 47.1471C50.6894 46.6749 51.5814 46.0256 52.1966 45.3099C52.3504 45.3984 52.5195 45.4575 52.681 45.487C55.2262 45.9887 57.4331 46.7855 58.9172 47.8628C60.0168 48.6596 60.6781 49.6114 60.6781 50.6886H60.6858V56.7683L47.4675 56.7978ZM41.8003 43.1997C41.8926 42.8308 41.9695 42.3217 42.031 41.7831C43.2152 42.3955 44.4763 42.7423 45.7604 42.7423C47.0446 42.7423 48.3133 42.3955 49.4975 41.7757C49.559 42.3143 49.6283 42.816 49.7205 43.1923C49.4437 43.5834 48.9054 43.9744 48.2288 44.2917C47.4829 44.6385 46.614 44.8598 45.7604 44.8598C44.9223 44.8598 43.9534 44.6754 43.1229 44.2917C42.5308 44.0113 42.0387 43.6424 41.8003 43.1997Z" fill="#324B8C"/>
</svg>
