<svg width="53" height="58" viewBox="0 0 53 58" fill="none" xmlns="http://www.w3.org/2000/svg">
<path fill-rule="evenodd" clip-rule="evenodd" d="M34.6738 28.9103C36.0204 29.5458 37.2317 30.398 38.2698 31.4298C40.602 33.7474 42.0389 36.9397 42.0389 40.4759C42.0389 41.3656 41.3092 42.0907 40.4139 42.0907H17.9199C17.0247 42.0907 16.295 41.3656 16.295 40.4759C16.295 36.9397 17.7394 33.7474 20.064 31.4298C21.1022 30.398 22.3209 29.5383 23.66 28.9103C23.487 28.7608 23.3065 28.5963 23.141 28.4243C21.5912 26.8917 20.6358 24.7685 20.6358 22.4285C20.6358 20.0884 21.5912 17.9652 23.141 16.4251C24.6832 14.8925 26.8197 13.943 29.1744 13.943C31.5292 13.943 33.6657 14.8925 35.2079 16.4251C36.7502 17.9652 37.7056 20.0884 37.7056 22.4285C37.7056 24.7685 36.7502 26.8843 35.2079 28.4169V28.4243C35.0424 28.5963 34.8619 28.7608 34.6738 28.9103ZM10.4947 46.726C11.3899 46.726 12.1197 47.4437 12.1197 48.3333C12.1197 49.223 11.3899 49.9482 10.4947 49.9482H6.41718V52.8041C6.41718 53.3498 6.63534 53.8433 6.98893 54.1946L6.99645 54.2021C7.35004 54.5535 7.84656 54.7778 8.39574 54.7778H47.7715C48.3131 54.7778 48.8097 54.5535 49.1708 54.2021C49.5319 53.8433 49.75 53.3498 49.75 52.8116V5.19593C49.75 4.65017 49.5243 4.15674 49.1708 3.79789C48.8172 3.44651 48.3282 3.22222 47.779 3.22222H8.39574C7.84656 3.22222 7.35004 3.44651 6.99645 3.79789C6.63534 4.15674 6.41718 4.65017 6.41718 5.19593V8.20134H10.4947C11.3899 8.20134 12.1197 8.92653 12.1197 9.81619C12.1197 10.7059 11.3899 11.431 10.4947 11.431H6.41718V46.726H10.4947ZM3.16721 49.9482V52.8041C3.16721 54.232 3.75401 55.5254 4.70192 56.4674L4.70944 56.4749C5.65735 57.4169 6.95884 58 8.39574 58H47.7715C49.2084 58 50.5174 57.4169 51.4653 56.4749C52.4132 55.5329 53 54.232 53 52.8041V5.19593C53 3.76798 52.4132 2.47461 51.4653 1.53261V1.52514C50.5174 0.58314 49.2084 0 47.779 0H8.39574C6.95884 0 5.64982 0.58314 4.70192 1.52514C3.75401 2.46713 3.16721 3.76798 3.16721 5.19593V8.20134H1.61746C0.722214 8.19386 0 8.91905 0 9.80871C0 10.6984 0.722214 11.4236 1.61746 11.4236H3.16721V46.726H1.61746C0.722214 46.726 0 47.4511 0 48.3408C0 49.2305 0.722214 49.9557 1.61746 49.9557H3.16721V49.9482ZM32.9134 18.7053C31.958 17.7559 30.6339 17.1652 29.1744 17.1652C27.715 17.1652 26.3909 17.7559 25.4355 18.7053C24.4725 19.6623 23.8782 20.9706 23.8782 22.4285C23.8782 23.8788 24.4725 25.1946 25.428 26.1441C26.3834 27.0936 27.7075 27.6842 29.1669 27.6842C30.6264 27.6842 31.9505 27.0936 32.9059 26.1441C33.8764 25.1946 34.4632 23.8788 34.4632 22.4285C34.4632 20.9706 33.8764 19.6548 32.9134 18.7053ZM35.9828 33.71C34.2375 31.983 31.8301 30.9139 29.1744 30.9139C26.5188 30.9139 24.1039 31.983 22.3661 33.71C20.9894 35.0781 20.0264 36.8649 19.6803 38.8685H38.6686C38.3225 36.8724 37.3595 35.0856 35.9828 33.71Z" fill="#324B8C"/>
</svg>
