<svg width="67" height="64" viewBox="0 0 67 64" fill="none" xmlns="http://www.w3.org/2000/svg">
<path fill-rule="evenodd" clip-rule="evenodd" d="M39.0105 15.4688C40.3598 16.1178 41.5735 17.0064 42.6213 18.0727C44.9581 20.4679 46.398 23.775 46.398 27.422C46.398 28.3414 45.6743 29.0909 44.7772 29.0909H22.2228C21.3257 29.0909 20.602 28.3414 20.602 27.422C20.602 23.7672 22.0494 20.4679 24.3787 18.0727C25.419 17.0064 26.6402 16.1256 27.982 15.4688C27.7935 15.3143 27.6126 15.1443 27.4468 14.9666C25.8939 13.3826 24.9365 11.1882 24.9365 8.76977C24.9365 6.35132 25.8939 4.15695 27.4392 2.57298C28.9921 0.981287 31.1254 0 33.4925 0C35.8519 0 37.9928 0.981287 39.5381 2.56525C41.0835 4.14922 42.0408 6.3436 42.0408 8.76204C42.0408 11.1805 41.0835 13.3671 39.5381 14.9588V14.9666C39.3723 15.1365 39.1914 15.3065 39.0105 15.4688ZM31.8868 33.271C31.8868 32.3516 32.6105 31.6021 33.5075 31.6021C34.4046 31.6021 35.1358 32.3516 35.1358 33.271V36.5935C36.1912 36.8871 37.141 37.4666 37.8948 38.2393L37.9023 38.247C39.0255 39.3983 39.7266 40.9823 39.7266 42.7362C39.7266 43.7561 39.4929 44.722 39.0708 45.5796L41.7921 48.3921C42.4253 49.0412 42.4178 50.092 41.7845 50.741C41.1513 51.3901 40.1261 51.3824 39.4929 50.7333L36.9073 48.0676C35.9349 48.7244 34.7664 49.103 33.5151 49.103C32.3165 49.103 31.1933 48.7553 30.2359 48.1449L27.6955 50.7488C27.0623 51.3978 26.0371 51.3978 25.3964 50.7488C24.7632 50.0997 24.7632 49.0412 25.3964 48.3921L28.0197 45.7033C27.5599 44.8147 27.3036 43.8102 27.3036 42.7362C27.3036 40.9745 27.9971 39.3828 29.1203 38.2316C29.8741 37.4589 30.8239 36.8794 31.8868 36.5858V33.271ZM31.2611 44.7142L31.2687 44.722C31.3064 44.7606 31.3441 44.807 31.3818 44.8456L31.4119 44.8765L31.4194 44.892C31.9471 45.4328 32.6859 45.7728 33.5151 45.7728C34.3367 45.7728 35.0755 45.4328 35.6107 44.8842C36.1384 44.3356 36.4701 43.5784 36.4701 42.7362C36.4701 41.894 36.1384 41.1368 35.6032 40.5882C35.0755 40.0396 34.3367 39.7074 33.5151 39.7074C32.6934 39.7074 31.9547 40.0473 31.4194 40.5959C30.8842 41.1445 30.5525 41.9017 30.5525 42.7362C30.5525 43.5012 30.8164 44.1888 31.2611 44.7142ZM12.8904 34.9091C10.5309 34.9091 8.39008 35.8904 6.84473 37.4743C5.29939 39.066 4.34203 41.2527 4.34203 43.6711C4.34203 46.0896 5.29939 48.284 6.85227 49.8679C7.01811 50.0534 7.19149 50.2156 7.37995 50.3779C6.03814 51.0269 4.81694 51.9155 3.77666 52.9818C1.44734 55.377 0 58.6841 0 62.331C0 63.2505 0.723672 63.9923 1.62072 63.9923H24.1676C25.0647 63.9923 25.7884 63.2505 25.7884 62.331C25.7884 58.6763 24.341 55.3693 22.0117 52.9818C20.9714 51.9155 19.7502 51.0269 18.4009 50.3702C18.5969 50.2156 18.7703 50.0456 18.9436 49.8757V49.8679C20.489 48.2762 21.4463 46.0896 21.4463 43.6711C21.4463 41.2527 20.489 39.0583 18.9436 37.4743C17.3908 35.8904 15.2574 34.9091 12.8904 34.9091ZM16.6445 39.831C17.6018 40.8123 18.1973 42.1722 18.1973 43.6711C18.1973 45.1778 17.6018 46.5377 16.6445 47.519H16.6369C15.6871 48.5003 14.3604 49.1107 12.898 49.1107H12.8904C11.428 49.1107 10.1013 48.5003 9.1439 47.519C8.18654 46.5377 7.59102 45.1778 7.59102 43.6711C7.59102 42.1722 8.18654 40.8123 9.1439 39.831C10.1013 38.8497 11.428 38.2393 12.8904 38.2393C14.3604 38.2393 15.6871 38.8497 16.6445 39.831ZM19.7201 55.3384C21.1071 56.7524 22.072 58.6068 22.4112 60.6698H3.38468C3.7239 58.6068 4.68879 56.7601 6.07583 55.3384C7.82471 53.5536 10.2294 52.4409 12.8904 52.4409H12.898C15.5665 52.4409 17.9787 53.5536 19.7201 55.3384ZM54.0945 34.9091C51.735 34.9091 49.5942 35.8904 48.0488 37.4743C46.4959 39.066 45.5386 41.2527 45.5386 43.6711C45.5386 46.0896 46.4959 48.284 48.0413 49.8679C48.2147 50.0534 48.3956 50.2156 48.584 50.3779C47.2347 51.0269 46.021 51.9155 44.9808 52.9818C42.6439 55.377 41.2041 58.6841 41.2041 62.331C41.2041 63.2505 41.9278 63.9923 42.8248 63.9923H65.3793C66.2763 63.9923 67.0075 63.2505 67.0075 62.331C67.0075 58.6763 65.5602 55.3693 63.2233 52.9818C62.1831 51.9155 60.9619 51.0269 59.6125 50.3702C59.7934 50.2079 59.9743 50.0456 60.1477 49.8679C61.6855 48.284 62.6429 46.0896 62.6429 43.6711C62.6429 41.2527 61.6855 39.0583 60.1402 37.4743C58.5948 35.8904 56.454 34.9091 54.0945 34.9091ZM57.841 39.831C58.7984 40.8123 59.3939 42.1722 59.3939 43.6711C59.3939 45.1778 58.7984 46.5377 57.841 47.519H57.8335C56.8837 48.5003 55.5569 49.1107 54.0945 49.1107C52.6321 49.1107 51.3054 48.5003 50.348 47.519C49.3831 46.5377 48.7876 45.1778 48.7876 43.6711C48.7876 42.1722 49.3831 40.8123 50.3405 39.831C51.2978 38.8497 52.6245 38.2393 54.087 38.2393C55.5569 38.2393 56.8837 38.8497 57.841 39.831ZM60.9242 55.3384C62.3037 56.7524 63.2686 58.6068 63.6153 60.6698H44.5812C44.9205 58.6068 45.8853 56.7601 47.2724 55.3384C49.0137 53.5536 51.426 52.4486 54.087 52.4409H54.0945C56.7631 52.4409 59.1753 53.5536 60.9242 55.3384ZM33.4925 14.2016C34.9624 14.2016 36.2816 13.5912 37.239 12.6099L37.2465 12.6177C38.2039 11.6364 38.7994 10.2765 38.7994 8.76977C38.7994 7.2708 38.2039 5.9109 37.2465 4.92962C36.2816 3.9406 34.9549 3.33019 33.4925 3.33019C32.03 3.33019 30.7033 3.93288 29.7384 4.92189C28.7735 5.9109 28.1855 7.26307 28.1855 8.76977C28.1855 10.2687 28.7811 11.6286 29.7384 12.6099C30.7033 13.5912 32.03 14.2016 33.4925 14.2016ZM40.3221 20.4293C38.5732 18.6445 36.161 17.5318 33.5 17.5318H33.4925C30.8315 17.5318 28.4192 18.6367 26.6703 20.4293C25.2908 21.851 24.3259 23.6977 23.9867 25.7607H43.0133C42.6665 23.6977 41.7016 21.851 40.3221 20.4293Z" fill="#324B8C"/>
</svg>
