<svg width="56" height="63" viewBox="0 0 56 63" fill="none" xmlns="http://www.w3.org/2000/svg">
<path fill-rule="evenodd" clip-rule="evenodd" d="M48.9689 63H6.03885C4.3743 63 2.86458 62.3308 1.77294 61.2587C0.681306 60.1865 0 58.7037 0 57.0688V32.0437C0 30.4088 0.681306 28.926 1.77294 27.8538C2.60135 27.0326 3.67751 26.4547 4.87753 26.219V22.2192C4.87753 19.208 5.48916 16.3412 6.59628 13.7254C7.74986 11.0107 9.4299 8.56222 11.528 6.50911C13.6184 4.45601 16.1113 2.80591 18.8753 1.68051C21.5386 0.59312 24.4573 0 27.5232 0C30.5814 0 33.5079 0.600724 36.1634 1.68811C38.8887 2.79831 41.3507 4.42559 43.4255 6.44068L43.5184 6.52432C44.1688 7.16307 44.1688 8.20483 43.5184 8.84357L38.5325 13.733H38.5248C37.8667 14.3718 36.8138 14.3718 36.1634 13.733C35.0408 12.6228 33.6937 11.7331 32.1917 11.1172C30.7594 10.5317 29.18 10.2123 27.5077 10.2123C24.1322 10.2123 21.074 11.5582 18.8598 13.7254C16.6533 15.9002 15.2907 18.9038 15.2907 22.2192V26.1125H48.9689C50.6334 26.1125 52.1432 26.7817 53.2348 27.8538C54.3264 28.926 55.0077 30.4088 55.0077 32.0437V57.0688C55.0077 58.7037 54.3342 60.1865 53.2348 61.2587C52.1354 62.3308 50.6257 63 48.9689 63ZM8.20664 26.1125H11.9538V22.2192C11.9538 17.9989 13.6958 14.1741 16.5139 11.4062C19.3321 8.63826 23.2186 6.92734 27.5155 6.92734C29.6213 6.92734 31.6343 7.33796 33.4769 8.09077C34.855 8.65347 36.1402 9.40628 37.286 10.3188L39.9338 7.71817C38.4319 6.4863 36.7286 5.45975 34.886 4.70694C32.6098 3.77924 30.1246 3.26216 27.5232 3.26216C24.9219 3.26216 22.4289 3.77164 20.1527 4.69934C17.7836 5.66506 15.6546 7.07942 13.8739 8.82837C12.0932 10.5697 10.6609 12.6608 9.67765 14.9801C8.72537 17.2157 8.20664 19.6642 8.20664 22.2192V26.1125ZM27.5077 32.9182C25.5877 32.9182 23.8535 33.6786 22.5992 34.9104C21.3373 36.1423 20.5631 37.8456 20.5631 39.7314C20.5631 40.8568 20.8418 41.9214 21.3295 42.8567C21.7012 43.5639 22.1889 44.1951 22.7773 44.7349V51.6319H22.7696H22.7773C22.7773 52.6736 23.2109 53.6165 23.8999 54.3009C24.5967 54.9853 25.5567 55.4111 26.6251 55.4111V55.4187V55.4035H28.3826C29.3891 55.4035 30.3026 55.0233 30.9917 54.4074L31.1078 54.3009C31.8046 53.6165 32.2304 52.6736 32.2304 51.6243V44.7273C32.8188 44.1874 33.3143 43.5563 33.686 42.8491C34.1737 41.9138 34.4524 40.8568 34.4524 39.7314C34.4524 37.8456 33.6782 36.1423 32.424 34.9104C31.162 33.6786 29.42 32.9182 27.5077 32.9182ZM30.0549 37.2221C29.4046 36.5833 28.4987 36.1803 27.5077 36.1803C26.509 36.1803 25.6032 36.5833 24.9451 37.2221C24.2948 37.8684 23.8922 38.7505 23.8922 39.7314C23.8922 40.317 24.0315 40.8645 24.2948 41.3587C24.558 41.8682 24.9451 42.3016 25.4096 42.6286C25.8277 42.9252 26.1064 43.4118 26.1064 43.9593L26.0987 51.6243H26.1064H26.0987C26.0987 51.7611 26.1606 51.8904 26.2535 51.9893C26.3464 52.0805 26.478 52.1413 26.6174 52.1413V52.1337V52.1413H28.3749C28.4987 52.1413 28.6071 52.0957 28.7 52.0273L28.7387 51.9893C28.8316 51.8904 28.8936 51.7611 28.8936 51.6319V44.043C28.8704 43.5031 29.1181 42.9632 29.5981 42.6286C30.0626 42.3016 30.4497 41.8682 30.7207 41.3587C30.9685 40.8721 31.1156 40.317 31.1156 39.739C31.1156 38.7581 30.713 37.8684 30.0549 37.2221ZM6.03885 59.7226H48.9689C49.7121 59.7226 50.3857 59.4261 50.8735 58.947C51.3612 58.468 51.6631 57.7988 51.6631 57.0764V32.0437C51.6631 31.3137 51.3612 30.6521 50.8735 30.1731C50.3857 29.694 49.7121 29.3975 48.9689 29.3975H13.6184H6.03885C5.29561 29.3975 4.62204 29.694 4.13429 30.1731C3.63879 30.6521 3.33685 31.3137 3.33685 32.0437V57.0688C3.33685 57.7988 3.6388 58.4604 4.12655 58.9394C4.62204 59.4185 5.29561 59.7226 6.03885 59.7226Z" fill="#324B8C"/>
</svg>
