<svg width="55" height="70" viewBox="0 0 55 70" fill="none" xmlns="http://www.w3.org/2000/svg">
<path fill-rule="evenodd" clip-rule="evenodd" d="M5.0276 10.7024H9.95154V5.08179C9.95154 3.68973 10.5217 2.41741 11.4324 1.49685L11.425 1.48936C12.3358 0.568801 13.5945 0 14.9791 0V0.00748423H38.7177C38.7621 0.00748423 38.8139 0 38.8584 0C39.3545 0 39.7913 0.224527 40.0801 0.58377L54.4373 15.1032C54.7779 15.3951 54.9926 15.8366 54.9926 16.3306C54.9926 16.383 54.9926 16.4279 54.9852 16.4803L54.9778 54.2232C54.9778 55.6228 54.4151 56.8876 53.5043 57.8082H53.5117C52.601 58.7288 51.3422 59.2976 49.9576 59.2976H45.0263V64.9107C45.0263 66.3103 44.4635 67.5751 43.5528 68.4957C42.6494 69.4312 41.3907 70 40.0061 70H5.0276V69.9925C3.63557 69.9925 2.38422 69.4237 1.47348 68.5106L1.38463 68.4059C0.533118 67.5003 0.00740442 66.2729 0.00740442 64.9182H0V15.7768C0 14.3772 0.562736 13.1049 1.47348 12.1843L1.57714 12.087C2.48048 11.2338 3.6948 10.7024 5.0276 10.7024ZM30.6247 52.8985H8.87049C7.98936 52.8985 7.27114 53.6245 7.27114 54.5151C7.27114 55.4058 7.98196 56.1242 8.87049 56.1242H30.6247C31.5058 56.1242 32.2166 55.4058 32.2166 54.5151C32.2166 53.6245 31.5058 52.8985 30.6247 52.8985ZM36.178 45.8185H8.87049C7.98936 45.8185 7.27114 46.5369 7.27114 47.4276C7.27114 48.3182 7.98196 49.0442 8.87049 49.0442H36.178C37.0591 49.0442 37.7773 48.3182 37.7773 47.4276C37.7773 46.5369 37.0591 45.8185 36.178 45.8185ZM16.6896 20.9783C14.9347 20.9783 13.3354 21.7043 12.1729 22.8718L12.1581 22.8793C11.003 24.0543 10.2847 25.6709 10.2847 27.4522C10.2847 29.1885 10.9659 30.7602 12.0692 31.9277C11.3584 32.3319 10.7068 32.8258 10.1292 33.4021L10.033 33.4919C8.32997 35.2133 7.27114 37.5933 7.27114 40.2277C7.27114 41.1184 7.98196 41.8443 8.87049 41.8443H24.5234C25.4046 41.8443 26.1228 41.1184 26.1228 40.2277C26.1228 37.6457 25.101 35.3031 23.4498 33.5892L23.3535 33.4919C22.7538 32.8782 22.0652 32.3468 21.3173 31.9202C22.4206 30.7527 23.0944 29.181 23.0944 27.4447C23.0944 25.6709 22.3835 24.0543 21.2211 22.8793L21.2137 22.8718C20.0512 21.7043 18.4518 20.9783 16.6896 20.9783ZM18.9627 25.147C18.3852 24.5632 17.5855 24.204 16.6896 24.204C15.801 24.204 14.9939 24.5632 14.4164 25.147L14.409 25.1545C13.8314 25.7383 13.476 26.554 13.476 27.4522C13.476 28.3577 13.8314 29.166 14.409 29.7498L14.4164 29.7573C14.9939 30.3411 15.801 30.7003 16.6896 30.7003C17.5781 30.7003 18.3852 30.3411 18.9553 29.7573L18.9627 29.7498C19.5477 29.166 19.9031 28.3503 19.9031 27.4522C19.9031 26.554 19.5477 25.7383 18.9627 25.147ZM21.0952 35.7746C19.9697 34.6295 18.4148 33.926 16.6896 33.926C15.0013 33.926 13.476 34.5996 12.358 35.6923L12.2839 35.7671C11.5213 36.538 10.9511 37.5184 10.6698 38.6037H22.7167C22.4354 37.5484 21.9023 36.5979 21.1692 35.8345L21.0952 35.7746ZM51.8087 17.9397H42.294C40.9094 17.9397 39.6506 17.3709 38.7399 16.4503C37.8292 15.5298 37.2664 14.2575 37.2664 12.8579V3.2257H14.9865V3.23319C14.483 3.23319 14.024 3.44275 13.6908 3.77954H13.676C13.3502 4.10884 13.1428 4.57286 13.1428 5.08179V10.7024H28.7588H28.7662C28.818 10.7024 28.8624 10.695 28.9068 10.695C29.3955 10.695 29.825 10.912 30.1212 11.2563L44.4931 25.7907C44.8337 26.09 45.0485 26.5241 45.0485 27.0181C45.0485 27.063 45.0485 27.1154 45.0411 27.1678L45.0337 56.0793H49.9576C50.4611 56.0793 50.9202 55.8698 51.2534 55.533H51.2608C51.594 55.1962 51.8013 54.7322 51.8013 54.2232L51.8087 17.9397ZM40.4577 5.50839V12.8579C40.4577 13.3668 40.6651 13.8309 40.9983 14.1676C41.3315 14.5044 41.7905 14.714 42.294 14.714H49.5578L40.4577 5.50839ZM41.8498 57.8381C41.8424 57.7857 41.8424 57.7408 41.8424 57.6884L41.8498 57.5462L41.8646 28.6347H32.3425C30.9653 28.6347 29.7065 28.0659 28.7958 27.1453L28.7884 27.1378C27.8776 26.2173 27.3149 24.9524 27.3149 23.5529V13.9207H19.7772H11.5361H5.0276V13.9132C4.55372 13.9132 4.11686 14.1003 3.79106 14.3997L3.73183 14.467C3.39863 14.8038 3.1913 15.2678 3.1913 15.7768V64.9182H3.1839C3.1839 65.3972 3.36901 65.8388 3.67259 66.1756L3.73183 66.228C4.06502 66.5722 4.5241 66.7818 5.0276 66.7818V66.7743H40.0061C40.5096 66.7743 40.9686 66.5647 41.3018 66.228H41.3092C41.6424 65.8912 41.8498 65.4271 41.8498 64.9182V57.8381ZM30.5062 16.2034V23.5529C30.5062 24.0618 30.7135 24.5258 31.0393 24.8626L31.0467 24.8701C31.3725 25.1994 31.839 25.409 32.3425 25.409H39.6062L34.9637 20.7089L30.5062 16.2034Z" fill="#324B8C"/>
</svg>
