<svg width="78" height="73" viewBox="0 0 78 73" fill="none" xmlns="http://www.w3.org/2000/svg">
<path fill-rule="evenodd" clip-rule="evenodd" d="M16.7216 52.7274C16.7867 54.6089 17.5586 56.3398 18.7769 57.5722C19.9394 58.7481 21.5204 59.4724 23.2782 59.4536L31.0438 59.3501C32.1505 59.3407 33.0526 60.2344 33.0619 61.3445V61.3727H33.0712V62.9625L41.9714 56.8948L33.0805 50.8366V52.4452C33.0805 53.5647 32.1784 54.4772 31.0717 54.4772H25.8822C23.7897 54.4772 20.7392 53.8281 18.1445 52.7557C17.6516 52.5393 17.168 52.3135 16.6937 52.0783L16.7216 52.7274ZM62.0782 37.5724C64.9892 37.5724 67.6304 38.7671 69.5369 40.6956C71.4527 42.6335 72.6338 45.3052 72.6338 48.2496C72.6338 51.1941 71.4527 53.8563 69.5462 55.7942V55.8036C69.3323 56.0106 69.1091 56.2175 68.8859 56.4057C70.5506 57.1959 72.0572 58.2777 73.3406 59.5759C76.2237 62.4921 78 66.5184 78 70.9586C78 72.0781 77.0979 72.9906 75.9912 72.9906H48.1746C47.0678 72.9906 46.1657 72.0781 46.1657 70.9586C46.1657 66.5184 47.9514 62.4921 50.8251 59.5759C52.1085 58.2777 53.6151 57.1959 55.2705 56.4057C55.0473 56.2175 54.8334 56.0106 54.6195 55.7942C52.713 53.8657 51.5226 51.1941 51.5226 48.2496C51.5226 45.3052 52.7037 42.6335 54.6102 40.705C56.5261 38.7671 59.1673 37.5724 62.0782 37.5724ZM66.7097 43.5648C65.5285 42.3701 63.8917 41.6269 62.0782 41.6269C60.274 41.6269 58.6372 42.3701 57.4468 43.5648C56.2656 44.7689 55.5402 46.4246 55.5402 48.2496C55.5402 50.0746 56.2749 51.7303 57.4561 52.925C58.6372 54.1197 60.274 54.8629 62.0875 54.8629H62.0968C63.901 54.8629 65.5378 54.1197 66.719 52.925V52.9344C67.8908 51.7397 68.6255 50.084 68.6255 48.2496C68.6255 46.4246 67.8908 44.7689 66.7097 43.5648ZM70.5041 62.4545C68.3465 60.272 65.3705 58.9268 62.0875 58.9268H62.0782C58.7953 58.9268 55.8192 60.272 53.6616 62.4545C51.9597 64.176 50.7693 66.4244 50.3508 68.9361H73.8242C73.4057 66.4244 72.206 64.176 70.5041 62.4545ZM15.9125 0C18.8234 0 21.4646 1.19472 23.3712 3.1232C25.287 5.05167 26.4588 7.72332 26.4588 10.6678C26.4588 13.6122 25.2777 16.2745 23.3712 18.2124V18.2218C23.1666 18.4381 22.9434 18.6357 22.7109 18.8332C24.3756 19.6329 25.8822 20.7053 27.1656 22.0129C30.0393 24.9291 31.825 28.9554 31.825 33.3956C31.825 34.5151 30.9229 35.4182 29.8161 35.4182H2.00882C0.90211 35.4182 0 34.5151 0 33.3862C0 28.9366 1.78562 24.9197 4.65935 22.0035C5.94277 20.7053 7.44939 19.6235 9.1048 18.8332C8.8816 18.6451 8.6584 18.4381 8.4445 18.2218C6.53798 16.2933 5.35686 13.6216 5.35686 10.6772C5.35686 7.73273 6.53798 5.06108 8.4445 3.1326C10.3603 1.19472 13.0015 0 15.9125 0ZM20.5346 5.9924C19.3535 4.79768 17.7167 4.05451 15.9125 4.05451C14.1083 4.05451 12.4714 4.79768 11.2903 5.9924C10.0999 7.18711 9.36521 8.84278 9.36521 10.6772C9.36521 12.5116 10.0999 14.1579 11.281 15.362C12.4621 16.5473 14.099 17.2905 15.9125 17.2905H15.9218C17.726 17.2905 19.3628 16.5473 20.5439 15.3526C21.7251 14.1579 22.4598 12.5022 22.4598 10.6678C22.4505 8.84278 21.7157 7.18711 20.5346 5.9924ZM24.3291 24.8727C22.1808 22.6996 19.2047 21.345 15.9125 21.345C12.6295 21.345 9.65351 22.6902 7.49589 24.8727C5.79397 26.6036 4.60355 28.8519 4.17575 31.3637H27.6492C27.2307 28.8519 26.0403 26.6036 24.3291 24.8727ZM59.9113 23.4804C59.8462 21.599 59.0743 19.8774 57.856 18.6357C56.6935 17.4598 55.1124 16.7354 53.3547 16.7543L45.5798 16.8671C44.4824 16.8765 43.571 15.9829 43.5617 14.8728V14.8446H43.5524V13.2548L34.6522 19.3224L43.5524 25.3901V23.7814C43.5524 22.662 44.4452 21.7589 45.5519 21.7589H50.7414C52.8339 21.7589 55.8843 22.3986 58.4791 23.4804C58.9813 23.6874 59.4649 23.9131 59.9299 24.1577L59.9113 23.4804ZM60.6832 15.7759C58.7953 13.8568 56.2098 12.6809 53.2989 12.7186L47.5607 12.7938V9.45425C47.5607 8.33479 46.6586 7.4317 45.5519 7.4317C45.0776 7.4317 44.6405 7.60103 44.3057 7.87384L29.9556 17.6385C29.0442 18.2594 28.7931 19.52 29.4069 20.4419C29.565 20.6771 29.7603 20.8746 29.9835 21.0157L44.4452 30.8651C45.3566 31.486 46.6028 31.2414 47.2166 30.31C47.4491 29.9714 47.5607 29.5763 47.5607 29.1812V25.804H50.7414C52.3968 25.804 54.8427 26.3308 56.9632 27.2057C58.5535 27.8642 59.8834 28.6638 60.3484 29.4822C60.8971 30.4512 62.1154 30.7804 63.0733 30.2254C63.7336 29.8397 64.0963 29.1341 64.0777 28.4098L63.901 23.3581C63.7987 20.4043 62.599 17.7044 60.6832 15.7759ZM15.9404 60.4414C14.0339 58.5129 12.8248 55.813 12.7225 52.8591L12.5551 47.8075C12.5365 47.0831 12.8899 46.3776 13.5596 45.9919C14.5082 45.4369 15.7265 45.7661 16.2845 46.7351C16.7402 47.5441 18.0794 48.3437 19.6697 49.0022C21.7902 49.8771 24.2361 50.4039 25.8915 50.4039H29.0721V47.0361H29.0814C29.0814 46.6504 29.193 46.2553 29.4162 45.9072C30.03 44.9759 31.2763 44.7313 32.1877 45.3522L46.6493 55.2015C46.8632 55.3427 47.0585 55.5308 47.2166 55.7754C47.8305 56.6973 47.5886 57.9579 46.6679 58.5787L32.3179 68.3434C31.9738 68.6256 31.546 68.795 31.0717 68.795C29.9649 68.795 29.0628 67.8919 29.0628 66.7724V63.4235L23.3247 63.4893C20.423 63.5363 17.8376 62.351 15.9404 60.4414Z" fill="#324B8C"/>
</svg>
