<svg width="59" height="77" viewBox="0 0 59 77" fill="none" xmlns="http://www.w3.org/2000/svg">
<path fill-rule="evenodd" clip-rule="evenodd" d="M6.5357 0.00941781H37.7002C37.766 0 37.8224 0 37.8789 0C38.5089 0 39.0638 0.282534 39.4399 0.734589L58.2853 19.6267C58.7179 20.0034 58.9906 20.5497 58.9906 21.1712C58.9906 21.2372 58.9906 21.2937 58.9812 21.3502L58.9718 70.4546C58.9718 72.2534 58.2383 73.8921 57.0534 75.0788C55.8685 76.2654 54.2416 77 52.4455 77H6.5357V76.9906C4.73956 76.9906 3.10328 76.256 1.91839 75.0694C0.742907 73.8921 0.00940389 72.2534 0.00940389 70.4546H0V6.54538C0 4.74658 0.733503 3.10788 1.91839 1.93065C3.09388 0.744007 4.73016 0.00941781 6.5357 0.00941781ZM12.8363 50.2723H32.1801C33.2992 50.2723 34.2113 49.3587 34.2113 48.238C34.2113 47.1173 33.3086 46.2132 32.1801 46.2132H12.8363C11.7172 46.2132 10.8051 47.1173 10.8051 48.238C10.8145 49.3587 11.7172 50.2723 12.8363 50.2723ZM12.8363 40.5248H44.1983C45.3173 40.5248 46.2295 39.6207 46.2295 38.5C46.2295 37.3793 45.3173 36.4658 44.1983 36.4658H12.8363C11.7172 36.4658 10.8051 37.3793 10.8051 38.5C10.8051 39.6207 11.7172 40.5248 12.8363 40.5248ZM12.8363 30.7868H44.1983C45.3173 30.7868 46.2295 29.8827 46.2295 28.762C46.2295 27.6413 45.3173 26.7277 44.1983 26.7277H12.8363C11.7172 26.7277 10.8051 27.6318 10.8051 28.762C10.8145 29.8827 11.7172 30.7868 12.8363 30.7868ZM44.0948 57.4863C43.1921 57.4863 42.3739 57.8536 41.7815 58.4469C41.189 59.0402 40.8223 59.8596 40.8223 60.7637C40.8223 61.6772 41.1796 62.4966 41.7721 63.0805L41.7815 63.0899C42.3739 63.6738 43.1921 64.0411 44.0948 64.0411C44.9976 64.0411 45.8157 63.6738 46.4082 63.0805C47.0006 62.4872 47.3674 61.6678 47.3674 60.7637C47.3674 59.8596 47.0006 59.0308 46.4082 58.4375C45.8251 57.8536 45.007 57.4863 44.0948 57.4863ZM38.9133 55.5745C37.5873 56.9024 36.7598 58.7389 36.7598 60.7637C36.7598 62.7791 37.5779 64.6156 38.9133 65.9435L38.9227 65.9529C40.258 67.2808 42.0824 68.1002 44.0948 68.1002C46.1167 68.1002 47.9504 67.2808 49.2764 65.9529C50.6023 64.625 51.4299 62.7885 51.4299 60.7637C51.4299 58.7389 50.6117 56.9118 49.2764 55.5839V55.5745C47.941 54.2466 46.1167 53.4272 44.0948 53.4272C42.073 53.4272 40.2392 54.2466 38.9133 55.5745ZM54.9469 23.1961H42.3927C40.606 23.1961 38.9697 22.4615 37.7848 21.2748L37.766 21.2654C36.5811 20.0788 35.857 18.4401 35.857 16.6507V4.05908H6.5357V4.06849V4.05908C5.85862 4.05908 5.23797 4.33219 4.78658 4.78425C4.33519 5.2363 4.05308 5.85788 4.05308 6.54538V70.4546H4.04367C4.04367 71.1327 4.32579 71.7637 4.77718 72.2158C5.22856 72.6678 5.84922 72.9409 6.5263 72.9409H52.4455C53.132 72.9409 53.7526 72.6584 54.204 72.2158C54.6554 71.7637 54.9281 71.1421 54.9281 70.4546L54.9469 23.1961ZM39.9101 6.93151V16.6601C39.9101 17.3476 40.1828 17.9692 40.6342 18.4118L40.6436 18.4212C41.0856 18.8639 41.7062 19.1464 42.3927 19.1464H52.0881L39.9101 6.93151Z" fill="#324B8C"/>
</svg>
