<svg width="83" height="71" viewBox="0 0 83 71" fill="none" xmlns="http://www.w3.org/2000/svg">
<path fill-rule="evenodd" clip-rule="evenodd" d="M48.4676 59.104C48.43 59.198 48.3736 59.2732 48.3266 59.3577L47.7158 60.4101L50.6664 59.7994C51.6812 59.5457 52.743 60.1188 53.0719 61.1337L54.0303 64.056L58.2776 56.7079C56.5298 56.1911 54.97 55.2515 53.7203 54.0017C53.2128 53.5037 52.7618 52.9493 52.3671 52.3573L48.4676 59.104ZM61.2657 35.7725C58.3152 35.7725 55.6466 36.9659 53.7109 38.9015C51.7846 40.8278 50.5912 43.5058 50.5912 46.4469C50.5912 46.7288 50.6006 47.0107 50.6288 47.2926L45.4795 56.2005H6.53062C5.84467 56.2005 5.2245 55.9186 4.78286 55.4864L4.77346 55.4676C4.33182 55.0259 4.04993 54.4058 4.04993 53.7198V6.53057C4.04993 5.84463 4.33182 5.22446 4.77346 4.78282C5.2245 4.33179 5.84467 4.05929 6.52123 4.05929H76.4694C77.1553 4.05929 77.7755 4.33179 78.2171 4.78282C78.6588 5.23385 78.9407 5.85402 78.9407 6.53057V53.7198C78.9407 54.4058 78.6682 55.0165 78.2171 55.4676C77.8977 55.7965 77.4748 56.0314 77.0144 56.1347L71.912 47.302C71.9308 47.0201 71.9402 46.7382 71.9402 46.4469C71.9402 43.5058 70.7469 40.8278 68.8112 38.9015C66.8849 36.9659 64.2162 35.7725 61.2657 35.7725ZM70.1737 52.3479C69.779 52.9399 69.328 53.4943 68.8206 54.0017C67.5708 55.2515 66.0016 56.1911 64.2632 56.7079L68.5011 64.056L69.4595 61.1337C69.7978 60.1188 70.8502 59.5457 71.8745 59.7994L74.825 60.4101L74.2424 59.4047C74.1672 59.292 74.1014 59.1792 74.0451 59.057L70.1737 52.3479ZM65.9546 41.7675C67.1574 42.9702 67.8997 44.624 67.8997 46.4563C67.8997 48.2886 67.1574 49.9424 65.9546 51.1452C64.8364 52.2634 63.3048 52.9869 61.6134 53.0715H61.5664H61.5194H61.4348H61.416H61.3503H61.3409H61.3315H61.3221H61.3127H61.3033H61.2939H61.2751H61.2657H61.1905H61.1811H61.1154H61.0966H61.0308H61.012H60.9556H60.9274H60.8804H60.8429H60.8053L60.7583 53.0621L60.6737 53.0527H60.6549L60.5892 53.0433C59.0293 52.8835 57.6292 52.1882 56.5768 51.1358C55.3834 49.9424 54.6411 48.2792 54.6411 46.4469C54.6411 44.624 55.3834 42.9608 56.5768 41.7581C57.7796 40.5647 59.4428 39.8224 61.2657 39.8224C63.098 39.8224 64.7518 40.5647 65.9546 41.7675ZM43.1397 60.2504H6.53062C4.74527 60.2504 3.11027 59.5175 1.9263 58.3335L1.9169 58.3241C0.732933 57.1402 0 55.5052 0 53.7198V6.53057C0 4.72644 0.732933 3.10085 1.9169 1.91689C3.10087 0.732927 4.72648 0 6.53062 0H76.4788C78.2735 0 79.8991 0.732927 81.0831 1.91689L81.0925 1.92628C82.2671 3.11024 83.0094 4.73584 83.0094 6.53057V53.7198C83.0094 55.5146 82.2765 57.1496 81.0925 58.3335C80.5099 58.9067 79.8334 59.3765 79.0722 59.7054L80.5099 62.1955C80.8012 62.6371 80.9234 63.1727 80.8106 63.7271C80.5851 64.8171 79.5139 65.5218 78.4145 65.2963L72.7483 64.103L70.9348 69.6093C70.7844 70.0603 70.4744 70.4738 70.0233 70.7275C69.0649 71.2913 67.8245 70.9624 67.2701 69.9946L61.2657 59.602L55.2707 69.9946C54.7069 70.9624 53.4759 71.2913 52.5081 70.7369C52.0571 70.4738 51.747 70.0603 51.5966 69.6093L49.7925 64.103L44.1169 65.2963C43.0269 65.5218 41.9557 64.8265 41.7302 63.7271C41.6269 63.2197 41.7208 62.7123 41.9557 62.2988L43.1397 60.2504ZM16.5944 48.4766H38.0186C39.1368 48.4766 40.0388 47.5745 40.0388 46.4469C40.0388 45.3287 39.1368 44.4267 38.0186 44.4267H16.5944C15.4762 44.4267 14.5647 45.3287 14.5647 46.4469C14.5647 47.5745 15.4762 48.4766 16.5944 48.4766ZM16.5944 17.8064H66.4056C67.5238 17.8064 68.4259 16.8949 68.4259 15.7767C68.4259 14.6586 67.5238 13.7471 66.4056 13.7471H16.5944C15.4762 13.7471 14.5647 14.6586 14.5647 15.7767C14.5647 16.8949 15.4762 17.8064 16.5944 17.8064ZM57.3379 25.0417H25.6621C24.5439 25.0417 23.6324 25.9532 23.6324 27.0713C23.6324 28.1895 24.5439 29.0916 25.6621 29.0916H57.3379C58.4561 29.0916 59.3676 28.1895 59.3676 27.0713C59.3676 25.9532 58.4561 25.0417 57.3379 25.0417Z" fill="#324B8C"/>
</svg>
