<svg width="86" height="79" viewBox="0 0 86 79" fill="none" xmlns="http://www.w3.org/2000/svg">
<path fill-rule="evenodd" clip-rule="evenodd" d="M45.3675 37.4447L49.7924 33.0345L51.5774 31.2554L50.901 30.5906L36.3767 16.1146L35.7002 15.4404L27.7147 23.3994L28.3817 24.0736L42.9154 38.5496L43.5919 39.2238L45.3675 37.4447ZM44.9635 7.547L44.2965 6.87282L46.4197 4.75667C46.8988 4.27913 47.5377 4.03568 48.1671 4.03568C48.7778 4.03568 49.3791 4.25104 49.8488 4.6724L62.2875 17.0884H62.2969C62.7667 17.5566 63.0109 18.1933 63.0109 18.83C63.0109 19.4668 62.7667 20.0941 62.2875 20.581L60.1737 22.6972L59.4973 22.023L44.9635 7.547ZM55.2038 23.4462L52.329 26.3115L40.6701 14.682L43.5355 11.8261L55.2038 23.4462ZM24.0789 31.2086L26.9443 28.3527L38.6126 39.9822L35.7472 42.8381L24.0789 31.2086ZM34.3098 47.1172L34.9862 47.7914L32.863 49.9076C32.3839 50.3851 31.745 50.6285 31.1156 50.6285C30.4767 50.6285 29.8379 50.3945 29.3588 49.9169L16.9106 37.5009C16.4785 37.0327 16.2624 36.4334 16.2624 35.8248C16.2624 35.1881 16.5067 34.5607 16.9858 34.0832L19.109 31.9671L19.7854 32.6412L34.3098 47.1172ZM11.875 62.0614H53.7758C54.8938 62.0614 55.8051 62.9603 55.8051 64.0746V74.955H63.6216C64.7396 74.955 65.6509 75.8632 65.6509 76.9775C65.6509 78.0917 64.7396 79 63.6216 79H53.7758H11.875H2.01988C0.901901 79 0 78.1011 0 76.9868C0 75.8726 0.901901 74.9643 2.01988 74.9643H9.83636V64.0839C9.84575 62.9697 10.757 62.0614 11.875 62.0614ZM51.756 66.0971H13.8949V74.9643H51.7466V66.0971H51.756ZM41.478 42.8381L38.6126 45.694L39.2891 46.3681C40.0782 47.1547 40.0782 48.4375 39.2891 49.224L35.7284 52.7634C34.4601 54.0275 32.7879 54.6642 31.1156 54.6642C29.4527 54.6642 27.7804 54.0275 26.5121 52.7634H26.4933L14.1204 40.4317L14.0076 40.3006C12.8145 39.0459 12.2132 37.4353 12.2132 35.8248C12.2132 34.1581 12.8521 32.4914 14.1204 31.2273L17.6716 27.6879C18.4608 26.9014 19.7479 26.9014 20.537 27.6879L21.2041 28.3621L24.0695 25.5062L23.4118 24.832C22.6227 24.0455 22.6227 22.7627 23.4118 21.9762L34.2628 11.1613C35.052 10.3748 36.3391 10.3748 37.1283 11.1613L37.7953 11.8355L40.6701 8.97025L40.0031 8.29608C39.2139 7.50954 39.2139 6.22674 40.0031 5.4402L43.5543 1.90079C44.8226 0.636719 46.4949 0 48.1671 0C49.783 0 51.3896 0.599265 52.6579 1.77907L52.7894 1.89143L65.1529 14.2325V14.2419C66.4306 15.5153 67.0601 17.1821 67.0601 18.8394C67.0601 20.5061 66.4212 22.1728 65.1529 23.4369L61.6017 26.9763C60.8125 27.7628 59.5255 27.7628 58.7363 26.9763L58.0599 26.3021L55.1945 29.158L55.8709 29.8322C56.66 30.6187 56.66 31.9015 55.8709 32.688L54.0859 34.4671L84.7505 65.0296L84.8914 65.1794C85.6336 65.9941 86.0094 67.0147 86.0094 68.0447C86.0094 69.1309 85.5866 70.2264 84.7599 71.0597L83.5104 72.2864C82.6742 73.1197 81.5844 73.5317 80.4853 73.5317C79.3955 73.5317 78.3057 73.1197 77.4695 72.2864H77.4601L46.8049 41.7238L45.0199 43.5029C44.2307 44.2894 42.9436 44.2894 42.1545 43.5029L41.478 42.8381ZM51.2205 37.323L81.9133 67.9136C81.9321 67.951 81.9415 67.9979 81.9415 68.0447C81.9415 68.1009 81.9227 68.157 81.8757 68.2039L80.645 69.4305C80.6074 69.4773 80.551 69.496 80.4853 69.496C80.4195 69.496 80.3631 69.4773 80.3161 69.4398H80.3255L49.6609 38.868L51.2205 37.323Z" fill="#324B8C"/>
</svg>
