<svg width="77" height="77" viewBox="0 0 77 77" fill="none" xmlns="http://www.w3.org/2000/svg">
<path fill-rule="evenodd" clip-rule="evenodd" d="M51.4829 36.607C47.6587 36.607 44.1897 38.1704 41.6931 40.6943C39.1779 43.2089 37.6351 46.7029 37.6351 50.5548C37.6351 54.4067 39.1873 57.9007 41.6931 60.4152C44.199 62.9392 47.6587 64.5026 51.4829 64.5026C55.3072 64.5026 58.7668 62.9392 61.2727 60.4152C63.7786 57.8913 65.3308 54.4067 65.3308 50.5548C65.3308 46.7029 63.7786 43.2183 61.2727 40.6943C58.7668 38.161 55.3072 36.607 51.4829 36.607ZM67.7151 58.4563L75.5039 66.3014C76.5044 67.3091 77.0094 68.637 77.0094 69.9649C77.0094 71.2834 76.5138 72.6113 75.5039 73.619C75.4104 73.7132 74.4006 74.7209 74.41 74.7303L74.2697 74.8527C73.3534 75.7286 72.2687 76.2654 71.1467 76.3596C69.8657 76.4726 68.6034 76.0488 67.5468 74.9752L59.4588 66.8382C59.1876 66.97 58.9165 67.1019 58.6359 67.2243V70.464H58.6453C58.6453 72.2628 57.916 73.8921 56.7285 75.0882C55.5503 76.2748 53.9327 77.0094 52.1468 77.0094H6.49848V77C4.70322 77 3.08561 76.2654 1.90747 75.0788C0.738676 73.9015 0.00935033 72.2628 0.00935033 70.464H0V6.54538C0 4.74657 0.729326 3.10788 1.90747 1.93065C3.08561 0.744007 4.71257 0.00941781 6.49848 0.00941781V0V0.00941781H37.4855C37.5416 0.00941781 37.607 0 37.6631 0C38.2896 0 38.8413 0.282534 39.2153 0.734589L57.9627 19.6267C58.3928 20.0034 58.664 20.5497 58.664 21.1712C58.664 21.2372 58.664 21.2937 58.6546 21.3502V33.8947C60.7491 34.8082 62.6379 36.1173 64.2274 37.7183C67.4907 41.0051 69.5104 45.5445 69.5104 50.5548C69.5104 53.3896 68.8652 56.0736 67.7151 58.4563ZM62.9184 64.5873C63.3766 64.2106 63.8067 63.8151 64.2274 63.3913C64.6763 62.9392 65.097 62.4683 65.4991 61.9692L72.6521 69.1738C72.8672 69.3904 72.97 69.6729 72.97 69.9649C72.97 70.2568 72.8578 70.5488 72.6521 70.7654L71.5581 71.8673H71.5488L71.474 71.9426C71.2308 72.1687 70.9971 72.3005 70.7914 72.3193C70.6792 72.3288 70.5483 72.2628 70.3893 72.1027L62.9184 64.5873ZM54.634 32.6798C53.6148 32.4914 52.5582 32.3973 51.4829 32.3973C46.5086 32.3973 42.0017 34.4315 38.7384 37.7183C36.5785 39.8938 34.9609 42.625 34.1194 45.6764H11.5103C10.3976 45.6764 9.49059 46.5899 9.49059 47.7106C9.49059 48.8313 10.3976 49.7449 11.5103 49.7449H33.4835C33.4648 50.0086 33.4555 50.2817 33.4555 50.5548C33.4555 52.0522 33.6332 53.5026 33.9791 54.8964H11.5103C10.3976 54.8964 9.49059 55.8099 9.49059 56.9306C9.49059 58.0514 10.3976 58.9649 11.5103 58.9649H35.5032C36.3541 60.613 37.4481 62.101 38.7384 63.4007C42.0017 66.6781 46.5086 68.7123 51.4829 68.7123C52.5489 68.7123 53.5961 68.6181 54.6153 68.4392V70.464H54.606C54.606 71.1515 54.3348 71.7731 53.8953 72.2158C53.4465 72.6584 52.8294 72.9409 52.1468 72.9409H6.48913V72.9503C5.81591 72.9503 5.19879 72.6678 4.74997 72.2158C4.30115 71.7637 4.02064 71.1421 4.02064 70.4546H4.02999V6.54538C4.02999 5.85788 4.3105 5.2363 4.74997 4.78425C5.19879 4.33219 5.81591 4.04966 6.48913 4.04966V4.05907V4.04966H35.6435V16.6507C35.6435 18.4401 36.3728 20.0788 37.5509 21.2654L37.5603 21.2748C38.7384 22.4615 40.3654 23.1961 42.142 23.1961H54.634V32.6798ZM21.7115 13.3733C19.4206 13.3733 17.3449 14.3151 15.8488 15.8219C14.3528 17.3288 13.4177 19.4195 13.4177 21.7269C13.4177 23.9966 14.3247 26.0591 15.7834 27.5659C14.7922 28.1216 13.8759 28.8185 13.0811 29.6284L13.0718 29.6378C10.8557 31.8604 9.49059 34.9401 9.49059 38.3399C9.49059 39.4606 10.3976 40.3647 11.5103 40.3647H31.9407C33.0534 40.3647 33.9511 39.4606 33.9511 38.3399C33.9511 34.9401 32.5766 31.8604 30.3699 29.6378L30.3605 29.6284C29.5564 28.8185 28.6401 28.1216 27.6489 27.5565C29.1076 26.0497 30.0146 23.9966 30.0146 21.7269C30.0146 19.4195 29.0889 17.3288 27.5835 15.8219C26.0781 14.3056 24.0023 13.3733 21.7115 13.3733ZM24.7316 18.6849C23.9649 17.9127 22.899 17.4324 21.7115 17.4324C20.5333 17.4324 19.4674 17.9127 18.7007 18.6849C17.9339 19.4666 17.4571 20.5402 17.4571 21.7269C17.4571 22.9135 17.9339 23.9872 18.7007 24.7688C19.4674 25.5411 20.5333 26.0214 21.7208 26.0214C22.899 26.0214 23.9649 25.5411 24.7316 24.7688C25.4984 23.9966 25.9752 22.9229 25.9752 21.7269C25.9752 20.5402 25.4984 19.4666 24.7316 18.6849ZM27.5274 32.4914C26.0407 31.0034 23.993 30.0805 21.7208 30.0805C19.458 30.0805 17.401 31.0034 15.9236 32.4914C14.8951 33.5274 14.1377 34.8365 13.773 36.3056H29.678C29.3039 34.8365 28.5466 33.5274 27.5274 32.4914ZM51.7915 19.137L39.6828 6.93151V16.6507C39.6828 17.3382 39.9633 17.9598 40.4028 18.4024L40.4121 18.4118C40.8516 18.8545 41.4687 19.137 42.1513 19.137H51.7915Z" fill="#324B8C"/>
</svg>
