<svg width="80" height="82" viewBox="0 0 80 82" fill="none" xmlns="http://www.w3.org/2000/svg">
<path fill-rule="evenodd" clip-rule="evenodd" d="M53.2028 24.5512C53.9862 23.7482 55.2641 23.7482 56.0476 24.5512C56.8311 25.3543 56.8311 26.6641 56.0476 27.4672L26.7973 57.4488C26.0138 58.2518 24.7453 58.2518 23.9524 57.4488C23.1689 56.6457 23.1689 55.3455 23.9524 54.5328L53.2028 24.5512ZM49.304 53.9305C49.7703 53.9305 50.1994 53.8445 50.5818 53.6819C50.9735 53.5098 51.3373 53.2517 51.6451 52.9458L51.6544 52.9362C51.9529 52.6207 52.2047 52.2479 52.3633 51.8368C52.5219 51.4448 52.6058 51.005 52.6058 50.5365C52.6058 50.0585 52.5219 49.6188 52.3633 49.2268C52.2047 48.8252 51.9529 48.4524 51.6451 48.1369C51.328 47.8214 50.9642 47.5632 50.5725 47.3912C50.19 47.2286 49.761 47.1426 49.304 47.1426C48.8469 47.1426 48.4179 47.2382 48.0354 47.3912C47.6344 47.5632 47.2613 47.8118 46.9535 48.1273C46.6457 48.4428 46.4032 48.8252 46.2353 49.2268C46.0767 49.6188 45.9928 50.0585 45.9928 50.5365C45.9928 51.005 46.0767 51.4448 46.2353 51.8368C46.3938 52.2383 46.6457 52.6112 46.9535 52.9362C47.2706 53.2613 47.6344 53.5098 48.0261 53.6819C48.4085 53.8349 48.8376 53.9305 49.304 53.9305ZM52.1021 57.4774C52.9976 57.095 53.809 56.5405 54.4806 55.8522L54.4899 55.8426C55.1615 55.1543 55.7025 54.3225 56.0756 53.4047C56.43 52.506 56.6352 51.5404 56.6352 50.5365C56.6352 49.5327 56.43 48.5575 56.0756 47.6684C55.6931 46.7315 55.1522 45.9093 54.4899 45.2209C53.8184 44.5326 53.0069 43.9781 52.1021 43.5957C51.2254 43.2228 50.2833 43.022 49.304 43.022C48.3246 43.022 47.3825 43.2228 46.5058 43.5957C45.601 43.9781 44.7989 44.5326 44.1273 45.2209L44.118 45.2305C43.4464 45.9189 42.9054 46.7411 42.5324 47.6684C42.1686 48.5575 41.9727 49.5327 41.9727 50.5365C41.9727 51.5404 42.1686 52.506 42.5324 53.4047C42.9054 54.3321 43.4464 55.1638 44.118 55.8522C44.7896 56.531 45.5917 57.095 46.5058 57.4774C47.3825 57.8503 48.3246 58.0511 49.304 58.0511C50.2833 58.0511 51.2254 57.8503 52.1021 57.4774ZM30.696 34.8574C31.1624 34.8574 31.5821 34.7714 31.9739 34.6088C32.3656 34.4367 32.7294 34.1786 33.0372 33.8631C33.345 33.5476 33.5968 33.1748 33.7647 32.7637C33.914 32.3717 34.0072 31.9319 34.0072 31.4634C34.0072 30.9854 33.914 30.5456 33.7647 30.1537C33.5968 29.7521 33.345 29.3793 33.0372 29.0638L32.9626 28.9777C32.6641 28.7005 32.3283 28.471 31.9646 28.3181C31.5821 28.1555 31.1531 28.0695 30.696 28.0695C30.239 28.0695 29.81 28.1651 29.4275 28.3181C29.0265 28.4901 28.6534 28.7387 28.3456 29.0638C28.0378 29.3697 27.7953 29.7521 27.6274 30.1537C27.4688 30.5456 27.3849 30.9854 27.3849 31.4634C27.3849 31.9319 27.4688 32.3717 27.6274 32.7637C27.7953 33.1748 28.0378 33.5476 28.3456 33.8631C28.6534 34.1786 29.0171 34.4272 29.4182 34.5993C29.8006 34.7618 30.2297 34.8574 30.696 34.8574ZM33.4942 38.4043C34.399 38.0219 35.2011 37.4674 35.8727 36.7791H35.882C36.5536 36.0907 37.0946 35.2589 37.4677 34.3316C37.8314 33.4329 38.0273 32.4673 38.0273 31.4634C38.0273 30.4596 37.8221 29.4844 37.4677 28.5953C37.0946 27.6679 36.5442 26.8266 35.882 26.1478L35.7514 26.0331C35.1078 25.4021 34.3337 24.8859 33.4849 24.5226C32.6175 24.1497 31.6661 23.9489 30.6867 23.9489C29.7074 23.9489 28.7653 24.1497 27.8885 24.5226C26.9931 24.905 26.1817 25.4595 25.5101 26.1478V26.1574C24.8385 26.8458 24.2975 27.6775 23.9245 28.5953C23.5607 29.4844 23.3648 30.4596 23.3648 31.4634C23.3648 32.4673 23.5607 33.4329 23.9245 34.3316C24.2975 35.2494 24.8385 36.0811 25.5101 36.7695L25.5194 36.7791C26.191 37.4674 27.0025 38.0219 27.8979 38.4043C28.7746 38.7772 29.7167 38.978 30.696 38.978C31.6754 38.978 32.6175 38.7772 33.4942 38.4043ZM39.9953 68.5962C43.6516 68.5962 47.14 67.8505 50.302 66.5121C53.5852 65.1162 56.5512 63.0703 59.0416 60.5177C61.532 57.965 63.5374 54.9248 64.8898 51.5595C66.205 48.3185 66.9232 44.7525 66.9232 40.9952C66.9232 37.2475 66.1956 33.6815 64.8898 30.4309C63.528 27.0656 61.532 24.0254 59.0416 21.4728C56.5512 18.9297 53.5852 16.8742 50.302 15.4879C47.14 14.1399 43.6516 13.4038 39.9953 13.4038C36.3391 13.4038 32.86 14.1399 29.698 15.4879C26.4148 16.8838 23.4488 18.9297 20.9584 21.4823C18.468 24.035 16.4626 27.0752 15.1102 30.4405C13.795 33.6815 13.0675 37.2475 13.0675 40.9952C13.0675 44.7525 13.795 48.3185 15.1009 51.5595C16.4626 54.9248 18.468 57.965 20.9584 60.5177C23.4488 63.0703 26.4055 65.1258 29.6887 66.5121C32.86 67.8505 36.3391 68.5962 39.9953 68.5962ZM51.8223 70.3076C55.6185 68.6918 59.0323 66.34 61.8771 63.424C64.7219 60.5081 67.0164 57.0185 68.5928 53.1179C70.1038 49.3702 70.9432 45.2783 70.9432 40.9952C70.9432 36.7121 70.1038 32.6203 68.5928 28.8726C67.0164 24.9815 64.7219 21.4823 61.8771 18.5664C59.0323 15.6505 55.6185 13.2986 51.8223 11.6829C48.1754 10.1341 44.174 9.27364 39.9953 9.27364C35.8167 9.27364 31.8246 10.1341 28.1684 11.6829C24.3722 13.2986 20.9584 15.6505 18.1136 18.5664C15.2687 21.4823 12.9742 24.9719 11.3979 28.8726C9.88691 32.6203 9.04745 36.7121 9.04745 40.9952C9.04745 45.2783 9.87758 49.3797 11.3979 53.1179C12.9742 57.009 15.2687 60.5081 18.1136 63.424C20.9584 66.34 24.3722 68.6918 28.1684 70.3076C31.8246 71.8564 35.8167 72.7168 39.9953 72.7168C44.174 72.7168 48.1754 71.8659 51.8223 70.3076ZM39.9953 4.12055C20.1283 4.12055 4.02005 20.6315 4.02005 40.9952C4.02005 51.1771 8.04943 60.4029 14.5599 67.0666C21.0703 73.7398 30.0711 77.8699 39.9953 77.8699C49.9289 77.8699 58.9297 73.7398 65.4308 67.0666C71.9412 60.3934 75.9706 51.1771 75.9706 40.9952C75.9706 30.8133 71.9412 21.5971 65.4308 14.9239C58.9204 8.25067 49.9289 4.12055 39.9953 4.12055ZM0 40.9952C0 52.3148 4.47709 62.5636 11.7151 69.9825C18.953 77.4014 28.9519 81.9904 39.9953 81.9904C51.0388 81.9904 61.0377 77.4014 68.2756 69.9825C75.5136 62.5636 79.9907 52.3148 79.9907 40.9952C79.9907 29.6756 75.5136 19.4268 68.2756 12.0079C61.047 4.58902 51.0388 0 39.9953 0C17.9084 0 0 18.3561 0 40.9952Z" fill="#324B8C"/>
</svg>
