<svg width="83" height="89" viewBox="0 0 83 89" fill="none" xmlns="http://www.w3.org/2000/svg">
<path fill-rule="evenodd" clip-rule="evenodd" d="M46.0926 8.28254H55.8508C56.9505 8.28254 57.8376 9.18728 57.8376 10.2972V42.2428C58.4844 42.1869 59.1405 42.1589 59.7966 42.1589C60.0831 42.1589 60.3695 42.1682 60.656 42.1775V8.1986C60.656 7.57367 60.3972 6.99539 59.9907 6.57567C59.5841 6.16527 59.0204 5.90411 58.392 5.90411H46.0926V8.28254ZM58.3828 69.8886C57.6065 70.4576 56.5069 70.3923 55.8046 69.6834C55.0284 68.8999 55.0284 67.6221 55.8046 66.8386L56.8026 65.8313L49.5856 60.3935C48.7077 59.7313 48.5229 58.4721 49.179 57.586C49.8351 56.6906 51.0919 56.5041 51.9697 57.1756L57.3016 61.1957C57.4772 60.3935 58.124 59.75 58.9742 59.6287C60.0646 59.4795 61.0718 60.2443 61.2197 61.3356V61.3636L68.3073 54.2189C69.0835 53.4354 70.3402 53.4354 71.1257 54.2189C71.9019 55.0024 71.9019 56.2802 71.1257 57.0637L62.8645 65.3929C63.6407 66.0738 63.7793 67.2583 63.151 68.1071C62.9107 68.4336 62.5965 68.6574 62.2454 68.788L63.6684 79.1039C63.8163 80.2045 63.0586 81.2118 61.9774 81.361C60.8778 81.5196 59.8705 80.7548 59.7227 79.6542L58.3828 69.8886ZM56.3036 46.496C56.2482 46.5147 56.1927 46.524 56.1373 46.5333C54.8528 46.7852 53.6238 47.1583 52.4502 47.6526H52.441C50.0939 48.6226 47.987 50.0683 46.2035 51.8591C44.4201 53.6593 42.997 55.7952 42.0267 58.155C41.0934 60.4308 40.5759 62.9398 40.5759 65.5794C40.5759 67.6034 40.8809 69.5435 41.4446 71.3623C41.4723 71.4556 41.5 71.5395 41.5185 71.6328C41.6756 72.0991 41.8419 72.5562 42.0267 73.0039C42.6458 74.5149 43.4498 75.9326 44.4201 77.2291C44.457 77.2757 44.494 77.3224 44.5309 77.369C45.0392 78.0499 45.6029 78.6935 46.2035 79.2997C47.987 81.0999 50.0939 82.5363 52.441 83.5156C54.6957 84.4577 57.1815 84.98 59.7966 84.98C62.4117 84.98 64.8975 84.4577 67.1522 83.5156C69.4901 82.5363 71.6062 81.0906 73.3897 79.2997C75.1639 77.4996 76.5962 75.3637 77.5665 73.0039C78.4998 70.7281 79.008 68.219 79.008 65.5794C79.008 62.9398 78.4905 60.4308 77.5572 58.155C76.5962 55.7952 75.1639 53.6593 73.3804 51.8591C71.6062 50.0683 69.4901 48.6226 67.1522 47.6433C65.6737 47.0277 64.1028 46.5893 62.4579 46.3561C62.4117 46.3561 62.3655 46.3468 62.3193 46.3375C61.4969 46.2349 60.6467 46.1789 59.7966 46.1789C58.6045 46.1789 57.431 46.2908 56.3036 46.496ZM53.8548 42.933C52.8476 43.2035 51.8681 43.5393 50.9163 43.9404C48.0701 45.1343 45.5197 46.8691 43.3851 49.0237C41.2505 51.1689 39.5317 53.7526 38.3489 56.6347C37.2123 59.3955 36.5932 62.4269 36.5932 65.5794C36.5932 67.1278 36.741 68.6294 37.0275 70.0938H10.7839V12.3119H18.5461V13.3938C18.5461 14.5038 19.4424 15.4085 20.5421 15.4085H44.0966C45.1963 15.4085 46.0926 14.5131 46.0926 13.3938V12.3119H53.8548V42.933ZM38.1918 74.1231H8.79715C7.69751 74.1231 6.80116 73.2277 6.80116 72.1178V10.2972C6.80116 9.18728 7.69751 8.28254 8.79715 8.28254H18.5553V5.90411H6.25596C5.62759 5.90411 5.05467 6.15594 4.64807 6.56634L4.63883 6.58499C4.24148 6.98606 3.98274 7.56435 3.98274 8.1986V74.2071C3.98274 74.8413 4.23224 75.4103 4.63883 75.8207L4.64807 75.83C5.05467 76.2404 5.61835 76.4922 6.25596 76.4922H39.2638C38.9311 75.858 38.6261 75.2051 38.3489 74.5335C38.2935 74.3936 38.238 74.2537 38.1918 74.1231ZM41.9251 80.5216H6.25596C4.54643 80.5216 2.97551 79.8127 1.84814 78.6748L1.82966 78.6562C0.702293 77.5089 0 75.9419 0 74.2071V8.1986C0 6.46374 0.702293 4.88745 1.8389 3.7402L1.84814 3.73087C2.98475 2.58363 4.54643 1.88409 6.25596 1.88409H18.5553C18.62 0.83012 19.4886 0 20.5421 0H44.0966C45.1593 0 46.0187 0.83012 46.0834 1.88409H58.3828C60.1015 1.88409 61.6632 2.59296 62.7998 3.7402H62.8091C63.9364 4.88745 64.6387 6.46374 64.6387 8.1986V42.6719C66.0248 42.9703 67.374 43.3994 68.6584 43.931C71.5138 45.1249 74.0735 46.8598 76.1988 49.0144C78.3335 51.1689 80.0522 53.7432 81.235 56.6253C82.3716 59.3955 83 62.4175 83 65.5701C83 68.732 82.3716 71.754 81.235 74.5149C80.0522 77.4063 78.3335 79.9899 76.1988 82.1445C74.0735 84.2898 71.5138 86.034 68.6584 87.2185C65.9232 88.3751 62.92 89 59.7966 89C56.664 89 53.67 88.3658 50.9255 87.2185C48.0794 86.034 45.5197 84.2898 43.3851 82.1445C42.8769 81.6222 42.3871 81.0812 41.9251 80.5216ZM16.5686 47.522H16.3653C15.2656 47.522 14.3785 48.4267 14.3785 49.5367C14.3785 50.6466 15.2656 51.542 16.3653 51.542H16.5686C17.6682 51.542 18.5553 50.6466 18.5553 49.5367C18.5553 48.4267 17.6682 47.522 16.5686 47.522ZM16.5686 35.7604H16.3653C15.2656 35.7604 14.3785 36.6652 14.3785 37.7751C14.3785 38.885 15.2656 39.7898 16.3653 39.7898H16.5686C17.6682 39.7898 18.5553 38.8944 18.5553 37.7751C18.5553 36.6558 17.6682 35.7604 16.5686 35.7604ZM16.5686 23.9895H16.3653C15.2656 23.9895 14.3785 24.8943 14.3785 26.0042C14.3785 27.1141 15.2656 28.0189 16.3653 28.0189H16.5686C17.6682 28.0189 18.5553 27.1141 18.5553 26.0042C18.5553 24.8943 17.6682 23.9895 16.5686 23.9895ZM47.2292 23.9895C48.3289 23.9895 49.216 24.8849 49.216 25.9949C49.216 27.1048 48.3289 28.0095 47.2292 28.0095H24.4601C23.3605 28.0095 22.4641 27.1048 22.4641 25.9949C22.4641 24.8849 23.3605 23.9895 24.4601 23.9895H47.2292ZM47.2292 35.7604C48.3289 35.7604 49.216 36.6652 49.216 37.7751C49.216 38.885 48.3289 39.7898 47.2292 39.7898H24.4601C23.3605 39.7898 22.4641 38.885 22.4641 37.7751C22.4641 36.6652 23.3605 35.7604 24.4601 35.7604H47.2292ZM36.2328 47.522H24.4601C23.3605 47.522 22.4641 48.4267 22.4641 49.5367C22.4641 50.6466 23.3605 51.542 24.4601 51.542H36.2328C37.3324 51.542 38.2288 50.6466 38.2288 49.5367C38.2196 48.4267 37.3324 47.522 36.2328 47.522ZM22.5381 4.02002H42.1099V11.3792H22.5381V4.02002Z" fill="#324B8C"/>
</svg>
